<?xml version="1.0" encoding="utf-8"?>
<!-- Generator: Adobe Illustrator 15.0.0, SVG Export Plug-In . SVG Version: 6.00 Build 0)  -->
<!DOCTYPE svg PUBLIC "-//W3C//DTD SVG 1.1//EN" "http://www.w3.org/Graphics/SVG/1.1/DTD/svg11.dtd">
<svg version="1.1"
	 id="svg2" inkscape:version="0.48.5 r10040" sodipodi:docname="Produkt Fotografie Symbol.svg" xmlns:dc="http://purl.org/dc/elements/1.1/" xmlns:cc="http://creativecommons.org/ns#" xmlns:rdf="http://www.w3.org/1999/02/22-rdf-syntax-ns#" xmlns:svg="http://www.w3.org/2000/svg" xmlns:sodipodi="http://sodipodi.sourceforge.net/DTD/sodipodi-0.dtd" xmlns:inkscape="http://www.inkscape.org/namespaces/inkscape"
	 xmlns="http://www.w3.org/2000/svg" xmlns:xlink="http://www.w3.org/1999/xlink" x="0px" y="0px" width="500px" height="500px"
	 viewBox="0 0 500 500" enable-background="new 0 0 500 500" xml:space="preserve">
<sodipodi:namedview  id="base" inkscape:pageshadow="2" inkscape:pageopacity="0" inkscape:cy="180.29576" inkscape:cx="1016.7374" inkscape:zoom="0.24748737" borderopacity="1.0" showguides="true" bordercolor="#666666" showgrid="false" pagecolor="#b4b4b4" inkscape:window-maximized="1" inkscape:window-y="-8" inkscape:window-x="-8" inkscape:window-height="1017" inkscape:window-width="1920" inkscape:guide-bbox="true" inkscape:current-layer="layer1" inkscape:document-units="px">
	<inkscape:grid  type="xygrid" enabled="true" visible="true" id="grid2985" empspacing="5" snapvisiblegridlinesonly="true">
		</inkscape:grid>
</sodipodi:namedview>
<g id="layer1" transform="translate(0,-552.36217)" inkscape:label="Ebene 1" inkscape:groupmode="layer">
	<g id="text3914" transform="matrix(0.98143346,0,0,0.98143346,7.2419826,7.6488993)">
	</g>
	<path id="path3030" inkscape:connector-curvature="0" fill="#FFFFFF" d="M84.774,655.914c-2.12,0.558-3.5,2.136-3.381,3.865v24.153
		c-0.013,0.161-0.013,0.322,0,0.483c0.174,1.204,1.068,2.277,2.415,2.898c0.447,0.219,0.937,0.382,1.449,0.483l45.408,8.695
		l15.458,199.988h21.254c-3.644,4.096-5.796,9.545-5.796,15.458c0,12.806,10.381,23.187,23.187,23.187
		c12.806,0,23.187-10.381,23.187-23.187c0-5.913-2.153-11.362-5.797-15.458h135.257c-3.644,4.096-5.797,9.545-5.797,15.458
		c0,12.806,10.382,23.187,23.188,23.187s23.188-10.381,23.188-23.187c0-5.913-2.153-11.362-5.797-15.458h21.254v-25.602
		l-218.827-4.831l-0.966-12.077l235.734-14.492c2.335-0.316,4.278-2.475,4.348-4.83V710.983c-0.093-2.502-2.328-4.736-4.83-4.831
		H162.547l-0.966-10.627c0-13.159-14.604-25.498-25.603-29.467c-0.307-0.111-0.666-0.386-0.966-0.483
		c-0.447-0.219-0.936-0.382-1.449-0.483l-2.898-0.483l-43.476-8.212C86.45,656.081,85.619,655.915,84.774,655.914L84.774,655.914z"
		/>
</g>
</svg>
