<?xml version="1.0" encoding="utf-8"?>
<!-- Generator: Adobe Illustrator 15.0.0, SVG Export Plug-In . SVG Version: 6.00 Build 0)  -->
<!DOCTYPE svg PUBLIC "-//W3C//DTD SVG 1.1//EN" "http://www.w3.org/Graphics/SVG/1.1/DTD/svg11.dtd">
<svg version="1.1"
	 id="svg2" inkscape:version="0.48.5 r10040" sodipodi:docname="Filmproduktion Symbol.svg" xmlns:dc="http://purl.org/dc/elements/1.1/" xmlns:cc="http://creativecommons.org/ns#" xmlns:rdf="http://www.w3.org/1999/02/22-rdf-syntax-ns#" xmlns:svg="http://www.w3.org/2000/svg" xmlns:sodipodi="http://sodipodi.sourceforge.net/DTD/sodipodi-0.dtd" xmlns:inkscape="http://www.inkscape.org/namespaces/inkscape"
	 xmlns="http://www.w3.org/2000/svg" xmlns:xlink="http://www.w3.org/1999/xlink" x="0px" y="0px" width="500px" height="500px"
	 viewBox="0 0 500 500" enable-background="new 0 0 500 500" xml:space="preserve">
<sodipodi:namedview  id="base" inkscape:pageshadow="2" inkscape:pageopacity="0" inkscape:cy="180.29576" inkscape:cx="1016.7374" inkscape:zoom="0.24748737" borderopacity="1.0" showguides="true" bordercolor="#666666" showgrid="false" pagecolor="#b4b4b4" inkscape:window-maximized="1" inkscape:window-y="-8" inkscape:window-x="-8" inkscape:window-height="1017" inkscape:window-width="1920" inkscape:guide-bbox="true" inkscape:current-layer="layer1" inkscape:document-units="px">
	<inkscape:grid  type="xygrid" enabled="true" visible="true" id="grid2985" empspacing="5" snapvisiblegridlinesonly="true">
		</inkscape:grid>
</sodipodi:namedview>
<g id="layer1" transform="translate(0,-552.36217)" inkscape:label="Ebene 1" inkscape:groupmode="layer">
	<g id="text3914" transform="matrix(0.98143346,0,0,0.98143346,7.2419826,7.6488993)">
	</g>
	<path id="path4352" inkscape:connector-curvature="0" fill="#FFFFFF" d="M250.518,650.293
		c-18.167,0.011-36.313,4.322-54.586,12.077c-4.396,1.872-7.208,6.907-6.28,11.594c14.458,72.742,5.36,64.954-1.932,101.926
		c-1.206,6.089,3.937,12.598,10.144,12.56h42.027v4.348h-44.925c-5.376,0-9.675,3.796-11.11,8.695
		c-6.156,0.272-10.905-0.013-13.526-0.966c-3.45-1.252-4.66-2.646-5.797-5.797c-1.806-5.006-1.205-16.131-0.966-29.467h6.763
		c5.667,0,10.144-4.478,10.144-10.145s-4.478-10.627-10.144-10.627h-27.052c-5.667,0-10.144,4.96-10.144,10.627
		s4.478,10.145,10.144,10.145h6.763c-0.517,12.931-1.497,24.31,1.932,33.814c2.17,6.015,6.801,11.569,13.525,14.009
		c5.915,2.146,13.304,2.224,22.221,1.449c8.987,10.588,30.512,18.589,52.171,20.771v15.941c-14.015,0.959-27.837,3.554-39.128,8.694
		c-6.909,3.146-12.764,7.525-17.391,13.043c-3.88,4.628-6.278,10.563-6.763,16.908h-0.483v3.381v0.482
		c0,4.361,3.369,7.729,7.729,7.729h3.381c4.361,0,7.593-3.37,7.729-7.729v-1.449v-2.414v-0.483c0.371-1.548,1.546-2.735,2.898-4.348
		c2.152-2.565,5.504-5.396,10.627-7.729c8.112-3.693,19.505-6.262,31.399-7.246v33.332c0,4.958,4.22,8.695,9.178,8.695h1.449
		c4.959,0,9.178-3.737,9.178-8.695v-33.332c11.555,0.859,22.496,3.219,30.434,6.764c5.143,2.297,8.891,5.08,11.11,7.729
		c2.22,2.649,3.011,4.473,2.899,7.729v1.449c0,4.313,3.416,7.729,7.729,7.729h3.381c4.313,0,7.595-3.419,7.729-7.729v-1.449
		c0.03-0.92,0.061-2.019,0-2.898c-0.402-6.666-3.097-12.438-7.246-17.391c-4.698-5.606-10.892-9.44-17.874-12.56
		c-11.119-4.966-24.471-7.42-38.162-8.212v-15.94c26.561-2.152,47.73-9.313,54.587-21.738c8.06,0.549,14.799,0.059,20.289-1.933
		c6.725-2.439,11.838-7.511,14.009-13.525c3.233-8.962,2.919-19.909,2.415-31.882h6.763c5.667,0,10.145-4.96,10.145-10.627
		s-4.478-10.145-10.145-10.145h-27.052c-5.667,0-10.144,4.478-10.144,10.145s4.477,10.627,10.144,10.627h6.28
		c0.281,12.136,0.728,22.355-0.967,27.051c-1.137,3.152-2.346,4.545-5.796,5.797c-2.762,1.002-7.792,1.352-14.492,0.966
		c-1.787-4.239-5.724-7.246-10.628-7.246h-45.408v-4.347h41.061c5.876,0.046,11.208-5.747,10.628-11.594
		c-3.781-41.877-14.562-26.664-1.449-102.409c0.817-4.512-1.649-9.637-5.796-11.594
		C286.834,654.517,268.674,650.282,250.518,650.293L250.518,650.293z M314.282,903.901c-6.197,0-11.11,4.914-11.11,11.111
		c0,6.196,4.913,11.593,11.11,11.593s11.11-5.396,11.11-11.593C325.393,908.815,320.479,903.901,314.282,903.901z M184.821,904.385
		c-6.197,0-11.11,4.913-11.11,11.11s4.914,11.11,11.11,11.11s11.11-4.913,11.11-11.11S191.018,904.385,184.821,904.385z
		 M249.552,915.012c-6.197,0-11.11,4.913-11.11,11.109c0,6.197,4.913,11.111,11.11,11.111s11.11-4.914,11.11-11.111
		C260.662,919.926,255.749,915.012,249.552,915.012z"/>
</g>
</svg>
