<?xml version="1.0" encoding="utf-8"?>
<!-- Generator: Adobe Illustrator 15.0.0, SVG Export Plug-In . SVG Version: 6.00 Build 0)  -->
<!DOCTYPE svg PUBLIC "-//W3C//DTD SVG 1.1//EN" "http://www.w3.org/Graphics/SVG/1.1/DTD/svg11.dtd">
<svg version="1.1"
	 id="svg2" inkscape:version="0.48.5 r10040" sodipodi:docname="Portait und Business Fotografie Symbol.svg" xmlns:dc="http://purl.org/dc/elements/1.1/" xmlns:cc="http://creativecommons.org/ns#" xmlns:rdf="http://www.w3.org/1999/02/22-rdf-syntax-ns#" xmlns:svg="http://www.w3.org/2000/svg" xmlns:sodipodi="http://sodipodi.sourceforge.net/DTD/sodipodi-0.dtd" xmlns:inkscape="http://www.inkscape.org/namespaces/inkscape"
	 xmlns="http://www.w3.org/2000/svg" xmlns:xlink="http://www.w3.org/1999/xlink" x="0px" y="0px" width="500px" height="500px"
	 viewBox="0 0 500 500" enable-background="new 0 0 500 500" xml:space="preserve">
<sodipodi:namedview  id="base" inkscape:pageshadow="2" inkscape:pageopacity="0" inkscape:cy="180.29576" inkscape:cx="1016.7374" inkscape:zoom="0.24748737" borderopacity="1.0" showguides="true" bordercolor="#666666" showgrid="false" pagecolor="#b4b4b4" inkscape:window-maximized="1" inkscape:window-y="-8" inkscape:window-x="-8" inkscape:window-height="1017" inkscape:window-width="1920" inkscape:guide-bbox="true" inkscape:current-layer="layer1" inkscape:document-units="px">
	<inkscape:grid  type="xygrid" enabled="true" visible="true" id="grid2985" empspacing="5" snapvisiblegridlinesonly="true">
		</inkscape:grid>
</sodipodi:namedview>
<g id="layer1" transform="translate(0,-552.36217)" inkscape:label="Ebene 1" inkscape:groupmode="layer">
	<g id="text3914" transform="matrix(0.98143346,0,0,0.98143346,7.2419826,7.6488993)">
	</g>
	<path id="path3865" inkscape:connector-curvature="0" fill="#FFFFFF" d="M91.063,676.534v19.323v97.096h-53.62v28.018v75.358
		c-0.015,0.351,0.011,0.613,0,0.966v0.483c0.253,29.063,22.734,53.385,51.205,56.035c1.228,0.114,11.708,0.037,19.322,0
		c3.046-0.016,7.227,0,7.729,0h334.763c8.41,0,12.734-5.663,14.492-9.179s2.415-6.858,2.415-10.144V695.857v-19.323h-16.907H107.97
		H91.063L91.063,676.534z M120.047,705.035h318.339v220.277H120.047V705.035z M138.403,721.46v95.163h26.568v-37.196h5.313
		c5.493,0,10.031-0.86,13.526-2.416c3.495-1.555,5.926-3.834,7.246-6.763c1.32-2.928,1.932-7.445,1.932-13.526v-7.729
		c0-5.866-0.301-10.605-0.966-13.526c-0.665-2.92-1.943-5.138-3.865-7.246c-1.921-2.108-4.958-3.74-8.695-4.831
		c-3.738-1.09-8.773-1.932-15.458-1.932L138.403,721.46L138.403,721.46z M239.363,736.918c-7.833,0.468-12.57,4.489-14.492,11.593
		l0.966-10.144h-25.603v78.256h25.603v-30.916c0-7.316,0.071-12.17,0.483-14.009c0.412-1.838,1.65-2.866,3.381-3.864
		c1.731-0.999,4.805-1.933,9.661-1.933V736.918L239.363,736.918z M271.246,736.918c-5.537,0-10.174,1.22-14.492,3.381
		c-4.318,2.161-7.771,5.137-9.661,9.178c-1.891,4.041-2.898,9.612-2.898,16.424v22.221c0,5.766,0.613,9.956,1.449,13.042
		c0.836,3.086,2.624,6.083,4.831,8.695s5.246,4.796,9.178,6.279c3.932,1.484,8.452,1.933,13.525,1.933
		c5.242,0,9.516-0.421,13.043-1.933s6.391-4.215,8.695-7.246c2.304-3.029,3.727-5.571,4.348-8.211
		c0.62-2.641,0.966-6.337,0.966-11.11v-6.763h-24.636v11.11c0,3.623-0.029,5.751-0.483,6.763c-0.455,1.012-1.238,1.932-2.415,1.932
		c-0.869,0-1.592-0.767-1.933-1.449s-0.483-2.51-0.483-5.797V779.91h29.95V768.8c0-7.516-1.116-13.129-2.898-17.39
		s-4.723-8.026-9.179-10.627C283.697,738.18,277.986,736.918,271.246,736.918L271.246,736.918z M332.111,736.918
		c-5.271,0-9.944,0.756-14.009,2.415c-4.063,1.659-6.973,4.152-8.695,7.246c-1.722,3.094-2.415,7.741-2.415,14.009
		c0,4.457,0.836,8.292,2.415,11.593c1.58,3.301,5.982,7.146,13.043,11.111c4.436,2.469,5.027,2.986,7.246,4.347h-22.221v4.831
		c0,6.544,0.749,11.646,2.415,14.975c1.666,3.33,4.765,5.795,9.178,7.729c4.414,1.935,9.842,2.898,15.941,2.898
		c5.534,0,10.506-0.614,14.492-2.415c3.985-1.803,6.504-4.376,8.212-7.729s2.898-8.595,2.898-14.975
		c0-5.756-1.588-9.898-3.864-13.043c-2.209-3.052-6.59-6.272-13.526-9.661c-4.976-2.453-8.194-4.143-9.661-5.313
		c-1.468-1.172-2.139-2.45-2.415-3.382c-0.279-0.931-0.483-2.585-0.483-4.831c0-1.475,0.033-2.305,0.483-2.898
		c0.448-0.593,1.089-0.966,1.933-0.966c1.017,0,1.663,0.341,1.932,0.966c0.266,0.625,0.483,2.435,0.483,5.797v5.314h23.187v-5.314
		c0-3.869-0.048-6.754-0.482-8.695c-0.436-1.941-1.829-4.018-3.865-6.28c-2.035-2.262-4.979-4.449-8.694-5.796
		C341.921,737.503,337.31,736.918,332.111,736.918L332.111,736.918z M391.045,736.918c-5.271,0-9.944,0.756-14.009,2.415
		c-4.063,1.659-6.973,4.152-8.694,7.246c-1.723,3.094-2.898,7.741-2.898,14.009c0,4.457,0.835,8.292,2.415,11.593
		c1.579,3.301,5.982,7.146,13.043,11.111c4.435,2.469,5.027,2.986,7.245,4.347h-21.737v4.831c0,6.544,0.749,11.646,2.415,14.975
		c1.667,3.33,4.765,5.795,9.179,7.729c4.413,1.935,9.357,2.898,15.458,2.898c5.534,0,10.506-0.614,14.491-2.415
		c3.986-1.803,6.987-4.376,8.695-7.729s2.415-8.595,2.415-14.975c0-5.756-1.104-9.898-3.381-13.043
		c-2.209-3.052-6.59-6.272-13.526-9.661c-4.976-2.453-8.193-4.143-9.661-5.313c-1.468-1.172-2.622-2.45-2.898-3.382
		c-0.278-0.931-0.482-2.585-0.482-4.831c0-1.475,0.517-2.305,0.966-2.898c0.448-0.593,1.089-0.966,1.933-0.966
		c1.017,0,1.663,0.341,1.932,0.966c0.266,0.625,0,2.435,0,5.797v5.314h23.188v-5.314c0-3.869-0.048-6.754-0.483-8.695
		c-0.435-1.941-1.829-4.018-3.864-6.28c-2.036-2.262-4.979-4.449-8.695-5.796S396.243,736.918,391.045,736.918L391.045,736.918z
		 M164.972,739.816c1.892,0,3.106,0.236,3.865,0.966c0.758,0.73,1.449,2.466,1.449,5.313v7.729c0,3.189-0.313,5.453-0.966,6.279
		c-0.652,0.827-2.09,0.966-3.864,0.966c-0.478,0.015-0.635-0.013-0.483,0V739.816z M272.212,752.859
		c0.665,0,1.624,0.609,1.933,1.449c0.308,0.841,0,2.991,0,6.763v4.348h-3.865v-4.348c0-4.159,0.23-6.598,0.483-7.246
		C271.016,753.177,271.205,752.859,272.212,752.859z M330.662,788.122c1.291,0.813,4.525,2.578,4.831,2.898
		c0.622,0.678,0.966,2.95,0.966,6.28c0,2.384-0.041,3.788-0.483,4.348c-0.442,0.56-1.696,0.966-2.897,0.966
		c-0.959,0-1.56-0.564-1.933-1.449s-0.483-3.255-0.483-7.246V788.122L330.662,788.122z M389.596,788.605
		c1.037,0.667,4.078,2.132,4.348,2.416c0.622,0.678,0.967,2.95,0.967,6.28c0,2.384-0.041,3.788-0.483,4.348
		c-0.442,0.56-1.214,0.966-2.415,0.966c-0.958,0-1.56-0.564-1.933-1.449s-0.483-3.255-0.483-7.246V788.605L389.596,788.605z
		 M64.495,820.97h26.568v104.825c-14.752-1.43-26.335-12.926-26.568-28.018c0-0.156,0-0.328,0-0.483
		c0.2-0.413,0.289-0.564,0.483-0.966h-0.483V820.97L64.495,820.97z M138.403,829.666v15.458h154.58v-15.458H138.403z
		 M308.441,829.666v15.458h108.206v-15.458H308.441z M138.403,860.582v15.458h185.496v-15.458H138.403L138.403,860.582z
		 M339.357,860.582v15.458h77.29v-15.458H339.357z M138.403,891.498v15.458h108.206v-15.458H138.403z M262.067,891.498v15.458
		h154.58v-15.458H262.067z"/>
</g>
</svg>
