<?xml version="1.0" encoding="utf-8"?>
<!-- Generator: Adobe Illustrator 15.0.0, SVG Export Plug-In . SVG Version: 6.00 Build 0)  -->
<!DOCTYPE svg PUBLIC "-//W3C//DTD SVG 1.1//EN" "http://www.w3.org/Graphics/SVG/1.1/DTD/svg11.dtd">
<svg version="1.1"
	 id="svg2" inkscape:version="0.48.5 r10040" sodipodi:docname="Neues Dokument 1" xmlns:dc="http://purl.org/dc/elements/1.1/" xmlns:cc="http://creativecommons.org/ns#" xmlns:rdf="http://www.w3.org/1999/02/22-rdf-syntax-ns#" xmlns:svg="http://www.w3.org/2000/svg" xmlns:sodipodi="http://sodipodi.sourceforge.net/DTD/sodipodi-0.dtd" xmlns:inkscape="http://www.inkscape.org/namespaces/inkscape"
	 xmlns="http://www.w3.org/2000/svg" xmlns:xlink="http://www.w3.org/1999/xlink" x="0px" y="0px" width="595.275px"
	 height="841.89px" viewBox="0 0 595.275 841.89" enable-background="new 0 0 595.275 841.89" xml:space="preserve">
<sodipodi:namedview  id="base" inkscape:pageshadow="2" inkscape:pageopacity="0" inkscape:cy="768.43778" inkscape:cx="717.27572" inkscape:zoom="0.32" borderopacity="1.0" bordercolor="#666666" showgrid="false" pagecolor="#000000" inkscape:window-y="-8" inkscape:window-x="-8" inkscape:window-height="737" inkscape:window-width="1280" inkscape:current-layer="layer1" inkscape:document-units="px" inkscape:window-maximized="1">
	</sodipodi:namedview>
<g id="g4024" transform="matrix(0.64410641,0,0,0.64410641,-2876.9409,539.29911)">
	<path id="path3968" inkscape:connector-curvature="0" fill="#4183D7" d="M4963.401,237.399
		c-66.603-8.868-172.93-47.445-282.405-102.463c-78.814-39.608-135.575-76.108-162.96-104.792
		c-11.578-12.126-15.75-20.116-20.771-39.76c-7.511-29.388-10.617-66.106-10.574-125.042c0.048-67.576,4.646-128.723,14.873-197.766
		c3.214-21.714,8.354-49.978,9.25-50.883c0.38-0.382,2.815,2.337,5.413,6.044c8.576,12.237,20.249,20.078,29.951,20.117
		c2.92,0.013,6.657-0.608,8.735-1.451c1.998-0.81,4.365-1.472,5.261-1.472s2.707-0.45,4.024-1.003
		c1.317-0.551,4.691-1.468,7.498-2.036c2.807-0.569,10.08-2.243,16.162-3.721c6.082-1.477,13.929-3.278,17.438-4
		c3.508-0.722,9.059-1.875,12.334-2.563c3.274-0.688,8.851-1.734,12.39-2.324c3.54-0.59,6.927-1.376,7.529-1.747
		s3.895-0.991,7.319-1.374c3.426-0.385,6.927-1.069,7.782-1.521c0.854-0.453,4.426-1.243,7.935-1.757
		c3.508-0.516,9.441-1.495,13.185-2.179c3.742-0.683,9.866-1.792,13.608-2.464c3.745-0.672,8.143-1.64,9.777-2.151
		c1.635-0.512,4.613-0.932,6.62-0.932c2.007,0,5.023-0.574,6.704-1.277c1.679-0.7,5.016-1.293,7.414-1.312
		c2.399-0.02,5.893-0.589,7.764-1.263c1.872-0.675,4.938-1.233,6.811-1.239c1.875-0.008,4.745-0.435,6.38-0.951
		c2.66-0.839,9.294-2.01,22.748-4.016c2.458-0.366,4.466-0.344,4.466,0.047c0,0.393-2.243,4.241-4.981,8.552
		c-6.307,9.923-18.517,31.082-33.97,58.874c-8.568,15.412-10.197,18.408-18.024,33.173c-2.481,4.679-5.942,11.187-7.689,14.46
		c-10.321,19.326-32.144,63.971-40.956,83.786c-0.937,2.106-2.586,5.742-3.667,8.081c-1.08,2.339-2.979,6.741-4.218,9.782
		c-1.241,3.038-2.6,6.295-3.024,7.231c-10.626,23.473-18.63,47.026-21.759,64.03c-2.475,13.444-0.121,29.021,6.272,41.529
		c5.295,10.355,17.988,19.055,27.802,19.055c5.002,0,12.512-5.905,14.664-11.529c0.882-2.309,6.575-18.814,9.959-28.875
		c0.787-2.339,1.731-5.411,2.101-6.826c0.368-1.413,1.113-3.398,1.654-4.41c0.54-1.011,0.982-2.747,0.982-3.856
		c0-1.111,0.563-2.765,1.249-3.674c0.687-0.908,1.264-2.415,1.282-3.349c0.017-0.937,0.591-2.776,1.273-4.086
		c0.685-1.31,1.61-3.607,2.061-5.102c0.448-1.499,2.024-5.786,3.501-9.527c1.477-3.743,3.203-8.334,3.834-10.207
		c0.632-1.871,1.97-5.508,2.972-8.081c1.003-2.571,2.189-5.901,2.636-7.4c0.446-1.495,1.37-3.793,2.055-5.102
		c0.682-1.31,1.243-2.718,1.248-3.129c0.011-1.63,17.729-43.841,24.86-59.222c10.802-23.309,14.636-31.418,18.1-38.278
		c6.136-12.156,13.885-26.956,15.587-29.771c0.99-1.637,2.366-4.125,3.058-5.529c1.923-3.906,6.476-11.9,12.042-21.146
		c2.77-4.604,5.422-9.017,5.89-9.808c9.675-16.351,48.318-72.462,56.12-81.486c2.879-3.33,2.972-3.351,33.921-7.522
		c5.546-0.747,11.025-1.718,12.176-2.155c1.152-0.437,4.125-0.796,6.61-0.796c2.482,0,6.142-0.574,8.131-1.276
		c1.989-0.701,5.818-1.275,8.506-1.275c2.689,0,6.518-0.575,8.507-1.277c1.989-0.701,5.84-1.276,8.557-1.276
		c2.718,0,6.019-0.431,7.336-0.957c1.317-0.527,5.648-1.276,9.625-1.664c3.977-0.39,14.12-1.697,22.541-2.909
		c8.422-1.21,18.411-2.507,22.198-2.883c3.789-0.375,7.396-0.998,8.019-1.381c0.622-0.385,4.794-0.979,9.272-1.322
		c4.479-0.342,11.206-1.034,14.949-1.537c20.205-2.716,40.645-5.184,50.185-6.059c4.213-0.386,13.153-1.31,19.87-2.053
		c6.716-0.743,14.061-1.352,16.318-1.352c2.259,0,5.032-0.351,6.162-0.782c1.131-0.429,12.115-1.211,24.41-1.737
		c17.271-0.738,22.961-1.263,25.009-2.305c1.458-0.741,5.619-4.429,9.244-8.194c6.131-6.366,6.592-7.099,6.592-10.488
		c0-2.87-0.497-4.115-2.339-5.863c-2.808-2.663-8.067-5.507-10.172-5.501c-0.838,0-3.246-0.544-5.352-1.214
		c-4.902-1.561-14.359-2.864-29.345-4.043c-19.758-1.556-102.258-0.824-114.407,1.014c-3.042,0.46-15.289,1.229-27.215,1.71
		c-11.929,0.481-23.029,1.209-24.669,1.616c-1.639,0.409-9.494,0.973-17.456,1.255c-7.959,0.281-15.804,0.895-17.433,1.361
		c-1.625,0.466-6.046,0.848-9.821,0.848c-3.778,0-8.949,0.365-11.49,0.811c-2.542,0.447-10.555,1.212-17.806,1.702
		c-7.253,0.489-15.099,1.255-17.438,1.699c-2.34,0.444-9.804,1.228-16.588,1.742c-16.531,1.252-46.207,4.263-59.967,6.087
		c-3.743,0.495-10.633,1.212-15.31,1.592c-4.679,0.381-15.205,1.505-23.393,2.5c-8.186,0.995-18.521,2.154-22.966,2.578
		c-4.445,0.424-9.995,1.146-12.334,1.607c-4.29,0.844-23.648,3.141-37.002,4.39c-3.976,0.372-8.566,1.089-10.201,1.593
		c-1.635,0.505-5.197,0.917-7.917,0.917c-2.721,0-6.551,0.383-8.512,0.85c-1.961,0.467-7.011,1.225-11.222,1.682
		c-7.881,0.858-27.537,3.461-42.531,5.634c-4.679,0.678-12.333,1.78-17.013,2.449c-4.677,0.669-12.141,1.808-16.586,2.532
		c-7.676,1.248-13.873,2.219-32.324,5.061c-13.483,2.079-23.532,3.853-24.988,4.411c-0.821,0.315-1.38,0.096-1.38-0.537
		c0-2.142,7.927-27.906,11.898-38.669c15.373-41.674,27.224-57.504,57-76.137c67.975-42.536,217.977-85.863,345.774-99.878
		c33.469-3.67,44.018-4.266,75.278-4.248c31.7,0.017,41.814,0.797,60.395,4.654c26.414,5.485,43.708,16.312,73.197,45.831
		c38.685,38.725,79.205,93.205,122.151,164.228c10.229,16.916,27.512,47.245,27.512,48.279c0,0.73-22.907,2.345-44.658,3.148
		c-6.081,0.225-18.33,0.993-27.219,1.706s-28.986,2.255-44.658,3.427c-15.671,1.172-29.643,2.358-31.046,2.639
		s-7.144,0.819-12.76,1.199c-17.486,1.181-38.967,3.301-42.754,4.22c-1.995,0.484-6.428,0.88-9.854,0.88
		c-3.425,0-8.299,0.387-10.833,0.86c-4.104,0.767-13.958,1.852-38.632,4.256c-19.266,1.877-33.559,3.529-37.854,4.375
		c-2.571,0.506-8.313,1.212-12.757,1.567c-7.248,0.578-13.823,1.355-47.21,5.576c-19.531,2.468-29.388,4.337-35.299,6.692
		c-1.639,0.652-5.174,2.029-7.858,3.06c-5.772,2.215-7.319,4.333-9.917,13.592c-0.987,3.508-2.935,10.208-4.332,14.886
		c-1.398,4.678-2.537,9.079-2.534,9.782c0,0.701-1.219,5.219-2.72,10.038c-2.661,8.562-2.697,8.874-1.481,13.536
		c1.829,7.023,3.686,8.111,11.828,6.939c3.511-0.506,8.021-1.454,10.026-2.107c2.004-0.652,5.173-1.187,7.042-1.187
		c1.871,0,4.774-0.574,6.454-1.276c1.682-0.701,4.826-1.293,6.991-1.312c2.165-0.02,5.467-0.59,7.338-1.264
		c1.871-0.674,4.744-1.232,6.385-1.239c1.642-0.009,4.321-0.434,5.956-0.951c1.634-0.515,6.225-1.456,10.202-2.089
		c3.977-0.633,10.482-1.734,14.459-2.446c3.977-0.712,9.91-1.706,13.185-2.211c3.275-0.503,7.903-1.468,10.282-2.145
		c2.38-0.675,6.125-1.228,8.319-1.228c2.197,0,5.37-0.574,7.048-1.276c3.192-1.335,9.65-1.751,9.65-0.624
		c0,0.359-0.897,1.986-1.997,3.615c-6.625,9.827-35.851,61.135-51.349,90.151c-12.134,22.715-10.972,21.044-15.377,22.107
		c-2.203,0.532-6.108,1.321-8.683,1.753c-2.573,0.435-6.018,1.161-7.655,1.616c-1.639,0.453-7.187,1.627-12.334,2.606
		c-13.458,2.562-14.737,3.107-20.638,8.772c-5.614,5.388-7.834,10.088-7.878,16.673c-0.011,1.672-0.813,5.905-1.78,9.417
		c-2.242,8.124-3.056,21.602-1.614,26.748c1.413,5.043,5.81,10.023,11.239,12.73c5.081,2.532,6.643,2.682,9.974,0.958
		c1.319-0.684,2.604-1.04,2.85-0.791c0.358,0.356-6.677,17.442-14.321,34.782c-5.589,12.681-12.073,30.64-16.123,44.658
		c-3.821,13.221-3.901,33.413-0.176,44.302c2.931,8.569,5.055,12.144,10.745,18.074c5.943,6.195,11.256,8.991,18.345,9.655
		c4.859,0.453,5.833,0.267,9.335-1.786c4.183-2.45,7.866-7.434,9.127-12.355c0.429-1.663,1.134-3.792,1.569-4.727
		c0.437-0.934,2.717-7.632,5.07-14.886c2.353-7.25,4.691-14.334,5.197-15.736c0.505-1.404,1.237-3.699,1.624-5.102
		c0.905-3.286,5.416-15.648,11.015-30.199c2.432-6.315,4.741-12.631,5.137-14.035c0.668-2.38,5.255-14.889,6.857-18.712
		c0.393-0.935,1.551-3.807,2.575-6.38c1.022-2.573,2.607-6.4,3.523-8.507c0.917-2.104,1.986-4.591,2.379-5.528
		s2.12-4.955,3.836-8.932c1.718-3.978,3.945-9.144,4.949-11.483c1.003-2.339,2.975-6.542,4.38-9.339
		c2.52-5.017,2.632-5.109,8.083-6.67c3.042-0.87,7.061-2.383,8.934-3.361c1.871-0.979,5.315-2.25,7.655-2.822
		c2.339-0.573,8.081-2.079,12.758-3.349c4.679-1.268,10.14-2.632,12.135-3.032c1.994-0.4,4.361-1.119,5.258-1.6
		c0.899-0.479,2.712-0.876,4.028-0.879c1.319,0,3.393-0.526,4.611-1.161c1.216-0.634,4.042-1.428,6.277-1.763
		c2.236-0.337,4.874-0.926,5.867-1.313c0.992-0.387,5.438-1.527,9.882-2.533c7.858-1.778,12.382-2.811,23.817-5.434
		c3.042-0.699,9.357-2.097,14.035-3.11c4.679-1.014,9.847-2.194,11.485-2.623c1.637-0.428,5.273-1.142,8.079-1.586
		c4.985-0.785,14.011-2.546,21.69-4.227c2.107-0.462,6.891-1.287,10.634-1.839c8.155-1.199,10.613-2.556,16.048-8.854
		c4.926-5.708,6.492-10.273,6.492-18.931c0-7.399-1.268-10.145-6.288-13.626l-3.346-2.318l-24.581-0.252
		c-14.76-0.149-27.535,0.132-31.971,0.705c-4.068,0.525-12.369,1.469-18.452,2.1c-14.579,1.512-31.926,3.672-38.275,4.768
		c-2.806,0.484-7.784,1.217-11.057,1.63c-3.276,0.414-9.591,1.34-14.035,2.06c-9.749,1.58-10.208,1.593-10.208,0.311
		c0-1.146,6.638-13.009,15.236-27.233c9.02-14.917,26.407-40.995,40.399-60.588c5.657-7.923,11.244-15.773,12.413-17.444
		c7.354-10.51,6.894-10.264,23.391-12.464c10.662-1.421,19.443-2.696,34.452-5.001c16.361-2.515,32.368-4.899,51.037-7.603
		c4.444-0.644,13.056-1.788,19.138-2.542c6.083-0.754,12.016-1.6,13.183-1.881c2.664-0.638,18.494-2.743,28.072-3.734
		c3.975-0.41,9.144-1.13,11.483-1.6c4.376-0.876,24.2-3.197,37.002-4.332c3.975-0.352,9.041-1.119,11.254-1.705
		c2.213-0.585,4.617-0.837,5.34-0.559c0.725,0.277,3.445,5.009,6.048,10.517c23.235,49.163,37.379,87.703,44.258,120.591
		c1.956,9.364,2.318,13.209,2.352,25.092c0.041,13.077-0.114,14.504-2.265,20.883c-3.262,9.673-14.284,31.492-24.398,48.28
		c-48.775,80.988-147.457,201.991-223.795,274.414c-52.551,49.859-90.59,76.267-117.221,81.381
		C4994.805,239.073,4975.37,238.99,4963.401,237.399L4963.401,237.399z"/>
</g>
</svg>
