<?xml version="1.0" encoding="utf-8"?>
<!-- Generator: Adobe Illustrator 15.0.0, SVG Export Plug-In . SVG Version: 6.00 Build 0)  -->
<!DOCTYPE svg PUBLIC "-//W3C//DTD SVG 1.1//EN" "http://www.w3.org/Graphics/SVG/1.1/DTD/svg11.dtd">
<svg version="1.1"
	 id="svg2" inkscape:version="0.48.5 r10040" sodipodi:docname="Presse und Event Fotografie Symbol.svg" xmlns:dc="http://purl.org/dc/elements/1.1/" xmlns:cc="http://creativecommons.org/ns#" xmlns:rdf="http://www.w3.org/1999/02/22-rdf-syntax-ns#" xmlns:svg="http://www.w3.org/2000/svg" xmlns:sodipodi="http://sodipodi.sourceforge.net/DTD/sodipodi-0.dtd" xmlns:inkscape="http://www.inkscape.org/namespaces/inkscape"
	 xmlns="http://www.w3.org/2000/svg" xmlns:xlink="http://www.w3.org/1999/xlink" x="0px" y="0px" width="500px" height="500px"
	 viewBox="0 0 500 500" enable-background="new 0 0 500 500" xml:space="preserve">
<sodipodi:namedview  id="base" inkscape:pageshadow="2" inkscape:pageopacity="0" inkscape:cy="180.29576" inkscape:cx="1016.7374" inkscape:zoom="0.24748737" borderopacity="1.0" showguides="true" bordercolor="#666666" showgrid="false" pagecolor="#b4b4b4" inkscape:window-maximized="1" inkscape:window-y="-8" inkscape:window-x="-8" inkscape:window-height="1017" inkscape:window-width="1920" inkscape:guide-bbox="true" inkscape:current-layer="layer1" inkscape:document-units="px">
	<inkscape:grid  type="xygrid" enabled="true" visible="true" id="grid2985" empspacing="5" snapvisiblegridlinesonly="true">
		</inkscape:grid>
</sodipodi:namedview>
<g id="layer1" transform="translate(0,-552.36217)" inkscape:label="Ebene 1" inkscape:groupmode="layer">
	<g id="text3914" transform="matrix(0.98143346,0,0,0.98143346,7.2419826,7.6488993)">
	</g>
	<path id="rect4070" inkscape:connector-curvature="0" fill="#FFFFFF" d="M394.797,662.656l-293.702,41.061
		c-4.055,0.448-7.445,4.673-6.763,8.695l2.898,18.839c-6.686,3.223-11.11,9.819-11.11,17.873c0,8.821,5.288,16.848,13.042,19.806
		v19.806c-0.107,3.917,3.33,7.59,7.246,7.729h297.083c3.917-0.139,7.36-3.812,7.246-7.729v-32.848
		c0.107-3.917-3.329-7.59-7.246-7.729H131.528l270.033-37.679c3.859-0.68,6.935-4.832,6.279-8.695l-4.831-32.365
		C402.579,665.524,398.695,662.251,394.797,662.656z M395.764,670.385l4.83,32.365l-16.424,2.416L395.764,670.385L395.764,670.385z
		 M379.339,672.318l-11.593,35.263l-32.849,4.348l12.076-34.78L379.339,672.318L379.339,672.318z M330.55,679.564l-11.594,34.781
		l-32.849,4.348l11.594-34.781L330.55,679.564z M281.76,686.327l-12.076,34.78l-32.365,4.348l11.593-34.781L281.76,686.327
		L281.76,686.327z M232.488,693.09l-11.593,34.78l-32.848,4.831l12.077-35.264L232.488,693.09z M183.699,699.852l-11.594,34.781
		l-32.848,4.831l11.593-34.78L183.699,699.852z M134.909,706.615l-11.11,32.365c-3.692-5.843-9.96-9.661-17.39-9.661
		c-0.626,0-1.323-0.053-1.932,0l-2.416-17.873L134.909,706.615L134.909,706.615z M106.409,736.082
		c7.405,0,13.042,5.637,13.042,13.042c0,7.406-5.637,13.526-13.042,13.526c-7.406,0-13.526-6.12-13.526-13.526
		c0-5.554,3.406-10.047,8.212-12.076C102.697,736.372,104.557,736.082,106.409,736.082z M139.74,755.887h32.849l-16.424,32.849
		h-32.848L139.74,755.887z M189.012,755.887h32.849l-16.424,32.849h-32.848L189.012,755.887L189.012,755.887z M238.285,755.887
		h33.332l-16.425,32.849h-33.331L238.285,755.887z M288.04,755.887h32.849l-16.424,32.849h-32.849L288.04,755.887L288.04,755.887z
		 M337.313,755.887h32.849l-16.424,32.849h-32.849L337.313,755.887z M386.585,755.887h16.907v32.849h-33.331L386.585,755.887
		L386.585,755.887z M118.002,766.032l-11.593,22.704v-18.839C110.821,769.897,114.585,768.493,118.002,766.032z M122.833,800.813
		v30.917v86.951c0,17.045,14.354,30.916,31.399,30.916h200.954c17.046,0,30.917-13.871,30.917-30.916v-86.951v-30.917h-30.917
		H154.232H122.833z M160.995,830.28h185.497v15.457H160.995V830.28L160.995,830.28z M176.453,861.196h154.581v15.457H176.453
		V861.196L176.453,861.196z M160.995,892.112h185.497v15.457H160.995V892.112L160.995,892.112z"/>
</g>
</svg>
