<?xml version="1.0" encoding="utf-8"?>
<!-- Generator: Adobe Illustrator 15.0.0, SVG Export Plug-In . SVG Version: 6.00 Build 0)  -->
<!DOCTYPE svg PUBLIC "-//W3C//DTD SVG 1.1//EN" "http://www.w3.org/Graphics/SVG/1.1/DTD/svg11.dtd">
<svg version="1.1"
	 id="svg2" inkscape:version="0.48.5 r10040" sodipodi:docname="Portait und Bussines Fotografie Symbol.svg" xmlns:dc="http://purl.org/dc/elements/1.1/" xmlns:cc="http://creativecommons.org/ns#" xmlns:rdf="http://www.w3.org/1999/02/22-rdf-syntax-ns#" xmlns:svg="http://www.w3.org/2000/svg" xmlns:sodipodi="http://sodipodi.sourceforge.net/DTD/sodipodi-0.dtd" xmlns:inkscape="http://www.inkscape.org/namespaces/inkscape"
	 xmlns="http://www.w3.org/2000/svg" xmlns:xlink="http://www.w3.org/1999/xlink" x="0px" y="0px" width="500px" height="500px"
	 viewBox="0 0 500 500" enable-background="new 0 0 500 500" xml:space="preserve">
<sodipodi:namedview  id="base" inkscape:pageshadow="2" inkscape:pageopacity="0" inkscape:cy="180.29576" inkscape:cx="1016.7374" inkscape:zoom="0.24748737" borderopacity="1.0" showguides="true" bordercolor="#666666" showgrid="false" pagecolor="#b4b4b4" inkscape:window-maximized="1" inkscape:window-y="-8" inkscape:window-x="-8" inkscape:window-height="1017" inkscape:window-width="1920" inkscape:guide-bbox="true" inkscape:current-layer="layer1" inkscape:document-units="px">
	<inkscape:grid  type="xygrid" enabled="true" visible="true" id="grid2985" empspacing="5" snapvisiblegridlinesonly="true">
		</inkscape:grid>
</sodipodi:namedview>
<g id="layer1" transform="translate(0,-552.36217)" inkscape:label="Ebene 1" inkscape:groupmode="layer">
	<g id="text3914" transform="matrix(0.98143346,0,0,0.98143346,7.2419826,7.6488993)">
	</g>
	<path id="path3062" inkscape:connector-curvature="0" fill="#FFFFFF" d="M253.666,667.07c-40.843,0-73.909,33.065-73.909,73.909
		c0,40.843,33.066,73.909,73.909,73.909c40.844,0,73.908-33.066,73.908-73.909C327.574,700.135,294.51,667.07,253.666,667.07
		L253.666,667.07z M198.597,809.091c-1.037,0.225-2.415,0.523-3.381,0.966c-43.953,20.214-69.078,65.481-69.078,116.901v4.348
		c-0.046,7.91,7.065,15.002,14.975,14.975H366.22c7.91,0.046,15.486-7.065,15.458-14.975v-4.348
		c0-51.42-25.125-96.688-69.078-116.901c-5.339-2.199-11.76-0.604-15.941,3.382c-10.615,8.93-28.904,14.008-42.992,14.008
		c-14.088,0-31.411-5.078-42.026-14.008C208.242,810.137,203.261,808.27,198.597,809.091z"/>
</g>
</svg>
